<svg xmlns="http://www.w3.org/2000/svg" xmlns:xlink="http://www.w3.org/1999/xlink" fill="none" version="1.1" width="16" height="16" viewBox="0 0 16 16"><path d="M0,4.4761906L0,2.3809528Q0,1.39473,0.69736493,0.69736481Q1.3947299,0,2.3809528,0L4.4761906,0L4.4761906,1.1428572L2.3809528,1.1428572Q1.8681166,1.1428572,1.505487,1.505487Q1.1428572,1.8681167,1.1428572,2.3809528L1.1428572,4.4761906L0,4.4761906ZM11.52381,1.1428572L11.52381,0L13.619048,0Q14.605272,0,15.302637,0.69736499Q16,1.3947295,16,2.3809528L16,4.4761906L14.857143,4.4761906L14.857143,2.3809528Q14.857143,1.8681172,14.494514,1.505487Q14.131884,1.1428572,13.619048,1.1428572L11.52381,1.1428572ZM5.666667,5.6190481L5.666667,2.261905Q5.666667,2.0745225,5.7991667,1.942023Q5.9316654,1.8095239,6.1190481,1.8095239Q6.3064303,1.8095239,6.4389296,1.9420235Q6.5714293,2.074522,6.5714293,2.261905L6.5714293,5.6190481L9.5238094,5.6190481L9.5238094,2.3095241Q9.5238094,2.1221411,9.6563091,1.989642Q9.7888088,1.8571429,9.9761906,1.8571429Q10.163572,1.8571429,10.296072,1.989642Q10.428572,2.1221411,10.428572,2.3095241L10.428572,5.6190481L13.761905,5.6190481Q13.95915,5.6190481,14.098624,5.7585211Q14.238096,5.897994,14.238096,6.0952387Q14.238096,6.2924838,14.098624,6.4319563Q13.95915,6.5714293,13.761905,6.5714293L10.428572,6.5714293L10.428572,9.5238094L13.785715,9.5238094Q13.973097,9.5238094,14.105595,9.656311Q14.238096,9.7888088,14.238096,9.9761906Q14.238096,10.163572,14.105594,10.296074Q13.973097,10.428572,13.785715,10.428572L10.428589,10.428711L10.428572,13.738096Q10.428572,13.925475,10.296074,14.057975Q10.163572,14.190477,9.9761906,14.190477Q9.7888088,14.190477,9.6563091,14.057975Q9.5238094,13.925475,9.5238094,13.738096L9.5238094,10.428572L6.5714293,10.428572L6.5714293,13.690477Q6.5714293,13.877856,6.43893,14.010356Q6.3064303,14.142859,6.1190481,14.142859Q5.9316654,14.142859,5.7991667,14.010357Q5.666667,13.877856,5.666667,13.690477L5.666667,10.428572L2.3095241,10.428572Q2.1221411,10.428572,1.989642,10.296072Q1.8571429,10.163572,1.8571429,9.9761906Q1.8571429,9.7888088,1.989642,9.6563091Q2.1221411,9.5238094,2.3095241,9.5238094L5.666667,9.5238094L5.666667,6.5714293L2.3333335,6.5714293Q2.1360891,6.5714293,1.9966161,6.4319563Q1.8571429,6.2924824,1.8571429,6.0952387Q1.8571429,5.897994,1.9966161,5.7585211Q2.1360886,5.6190481,2.3333335,5.6190481L5.666667,5.6190481ZM10.428589,10.428711L10.428589,13.762045L12.857161,13.762045C13.356847,13.762045,13.761923,13.356969,13.761923,12.857283L13.761923,10.428711L10.428589,10.428711ZM9.5238094,6.5714293L6.5714293,6.5714293L6.5714293,9.5238094L9.5238094,9.5238094L9.5238094,6.5714293ZM0,13.619048L0,11.52381L1.1428572,11.52381L1.1428572,13.619048Q1.1428572,14.131884,1.505487,14.494514Q1.8681172,14.857143,2.3809528,14.857143L4.4761906,14.857143L4.4761906,16L2.3809528,16Q1.3947294,16,0.69736475,15.302637Q0,14.605272,0,13.619048ZM14.494514,14.494514Q14.857143,14.131884,14.857143,13.619048L14.857143,11.52381L16,11.52381L16,13.619048Q16,14.605272,15.302637,15.302637Q14.605272,16,13.619048,16L11.52381,16L11.52381,14.857143L13.619048,14.857143Q14.131884,14.857143,14.494514,14.494514Z" fill-rule="evenodd" fill="#000000" fill-opacity="1"/></svg>